<?xml version="1.0" encoding="iso-8859-1"?>
<!-- Uploaded to: SVG Repo, www.svgrepo.com, Generator: SVG Repo Mixer Tools -->
<svg version="1.1" id="Layer_1" xmlns="http://www.w3.org/2000/svg" xmlns:xlink="http://www.w3.org/1999/xlink" 
	 viewBox="0 0 512 512" xml:space="preserve">
<path style="fill:#4CF5CB;" d="M388.22,78.769v354.462H78.769V78.769H388.22z"/>
<rect x="376.967" y="78.769" style="fill:#2DD4AA;" width="56.264" height="354.462"/>
<polygon style="fill:#FFE08F;" points="78.769,33.758 78.769,478.242 0,512 0,0 "/>
<polygon style="fill:#F5AC51;" points="512,0 512,512 433.231,478.242 433.231,33.758 "/>
<polygon style="fill:#FFFFFF;" points="444.484,90.022 421.978,56.264 56.264,56.264 56.264,455.736 421.978,455.736 
	444.484,421.978 90.022,421.978 90.022,90.022 "/>
<rect x="421.978" y="56.264" style="fill:#FFF3D4;" width="33.758" height="399.473"/>
<g>
	<polygon style="fill:#FFD159;" points="56.264,455.736 0,512 512,512 455.736,455.736 	"/>
	<polygon style="fill:#FFD159;" points="455.736,56.264 512,0 0,0 56.264,56.264 	"/>
</g>
<polygon style="fill:#AB5D4A;" points="177.231,230.67 177.231,360.696 284.132,360.696 317.89,230.67 "/>
<path style="fill:#C08577;" d="M256,337.582l98.462,84.396h33.758C365.062,372.14,314.571,337.582,256,337.582z"/>
<path style="fill:#D5AEA4;" d="M256,337.582c43.616,0,81.211,34.557,98.462,84.396H123.78
	C146.938,372.14,197.429,337.582,256,337.582z"/>
<path style="fill:#FFCDC1;" d="M295.385,160.352v143.473h-45.011c-40.397,0-73.143-32.746-73.143-73.154v-16.868
	c0-29.516,23.935-53.451,53.451-53.451S295.385,160.352,295.385,160.352z"/>
<rect x="172.55" y="205.363" style="fill:#F5AC51;" width="116.263" height="16.879"/>
<path style="fill:#792A18;" d="M256,126.593c-48.086,0-87.209,39.121-87.209,87.209v146.893h16.879V213.802
	c0-17.202,6.217-32.974,16.511-45.208c8.252-5.213,18.02-8.243,28.5-8.243c29.516,0,53.451,23.935,53.451,53.451v146.893h42.198
	h16.879V213.802C343.209,165.715,304.086,126.593,256,126.593z"/>
</svg>